<svg width="20" height="20" viewBox="0 0 20 20" fill="none" xmlns="http://www.w3.org/2000/svg">
<path d="M5.41663 14.5833V12.0833M9.58329 14.5833V7.08325M13.75 14.5833V11.2499" stroke="#137EEF" stroke-width="1.5" stroke-linecap="round"/>
<path d="M17.9166 4.58325C17.9166 5.96396 16.7974 7.08325 15.4166 7.08325C14.0359 7.08325 12.9166 5.96396 12.9166 4.58325C12.9166 3.20254 14.0359 2.08325 15.4166 2.08325C16.7974 2.08325 17.9166 3.20254 17.9166 4.58325Z" stroke="#137EEF" stroke-width="1.5"/>
<path d="M17.913 9.16659C17.913 9.16659 17.9167 9.4495 17.9167 9.99992C17.9167 13.7319 17.9167 15.5978 16.7574 16.7573C15.598 17.9166 13.732 17.9166 10 17.9166C6.26809 17.9166 4.40212 17.9166 3.24274 16.7573C2.08337 15.5978 2.08337 13.7319 2.08337 9.99992C2.08337 6.26799 2.08337 4.40202 3.24274 3.24264C4.40212 2.08328 6.26809 2.08328 10 2.08328L10.8334 2.08325" stroke="#137EEF" stroke-width="1.5" stroke-linecap="round" stroke-linejoin="round"/>
</svg>
