<svg width="20" height="20" viewBox="0 0 20 20" fill="none" xmlns="http://www.w3.org/2000/svg">
<path d="M17.0833 4.1665C17.7736 4.1665 18.3333 3.60686 18.3333 2.9165C18.3333 2.22615 17.7736 1.6665 17.0833 1.6665C16.3929 1.6665 15.8333 2.22615 15.8333 2.9165C15.8333 3.60686 16.3929 4.1665 17.0833 4.1665Z" stroke="#0088FF" stroke-width="1.5" stroke-linecap="round" stroke-linejoin="round"/>
<path d="M2.91675 18.3335C3.60711 18.3335 4.16675 17.7738 4.16675 17.0835C4.16675 16.3932 3.60711 15.8335 2.91675 15.8335C2.22639 15.8335 1.66675 16.3932 1.66675 17.0835C1.66675 17.7738 2.22639 18.3335 2.91675 18.3335Z" stroke="#0088FF" stroke-width="1.5" stroke-linecap="round" stroke-linejoin="round"/>
<path d="M17.5322 10.8854C18.0064 10.7725 18.3334 10.4112 18.3334 10.0002C18.3334 9.58908 18.0064 9.22783 17.5322 9.11491L13.7677 8.21866C13.0999 6.80868 11.6639 5.8335 10.0001 5.8335C8.33625 5.8335 6.90026 6.80869 6.23239 8.21866L2.46801 9.11491C1.99374 9.22783 1.66675 9.58908 1.66675 10.0002C1.66675 10.4112 1.99374 10.7725 2.46801 10.8854L6.23239 11.7817C6.90026 13.1917 8.33625 14.1668 10.0001 14.1668C11.6639 14.1668 13.0999 13.1917 13.7677 11.7817L17.5322 10.8854Z" stroke="#0088FF" stroke-width="1.5" stroke-linecap="round" stroke-linejoin="round"/>
<path d="M9.99992 11.6668C10.9204 11.6668 11.6666 10.9207 11.6666 10.0002C11.6666 9.07966 10.9204 8.3335 9.99992 8.3335C9.07942 8.3335 8.33325 9.07966 8.33325 10.0002C8.33325 10.9207 9.07942 11.6668 9.99992 11.6668Z" stroke="#0088FF" stroke-width="1.5" stroke-linecap="round" stroke-linejoin="round"/>
<path d="M12.5005 2.048C11.7113 1.80013 10.8715 1.6665 10.0005 1.6665C7.27417 1.6665 4.85359 2.97576 3.33325 4.99984M7.50053 17.9517C8.28973 18.1995 9.1295 18.3332 10.0005 18.3332C12.7265 18.3332 15.1468 17.0243 16.6672 15.0007" stroke="#0088FF" stroke-width="1.5" stroke-linecap="round" stroke-linejoin="round"/>
</svg>
