<svg width="15" height="15" viewBox="0 0 15 15" fill="none" xmlns="http://www.w3.org/2000/svg">
<path d="M1.5625 7.5C1.5625 4.70104 1.5625 3.30156 2.43202 2.43202C3.30156 1.5625 4.70104 1.5625 7.5 1.5625C10.2989 1.5625 11.6984 1.5625 12.568 2.43202C13.4375 3.30156 13.4375 4.70104 13.4375 7.5C13.4375 10.2989 13.4375 11.6984 12.568 12.568C11.6984 13.4375 10.2989 13.4375 7.5 13.4375C4.70104 13.4375 3.30156 13.4375 2.43202 12.568C1.5625 11.6984 1.5625 10.2989 1.5625 7.5Z" stroke="#137EEF" stroke-width="1.5" stroke-linecap="round" stroke-linejoin="round"/>
<path d="M13.4375 8.4375H10.3589C9.83263 8.4375 9.41913 8.87725 9.18719 9.342C8.93519 9.84694 8.43056 10.3125 7.5 10.3125C6.56944 10.3125 6.06483 9.84694 5.81284 9.342C5.58089 8.87725 5.16736 8.4375 4.64104 8.4375H1.5625" stroke="#137EEF" stroke-width="1.5" stroke-linejoin="round"/>
</svg>
