<svg width="15" height="15" viewBox="0 0 15 15" fill="none" xmlns="http://www.w3.org/2000/svg">
<path d="M2.74542 2.50054C2.5 2.88498 2.5 3.38229 2.5 4.3769V10.6231C2.5 11.6177 2.5 12.115 2.74542 12.4994C2.78924 12.5681 2.83837 12.6332 2.89236 12.6942C3.19465 13.0357 3.67291 13.1724 4.62944 13.4456C5.58838 13.7196 6.06785 13.8565 6.415 13.6511C6.47525 13.6154 6.53125 13.5732 6.58206 13.5251C6.875 13.2478 6.875 12.7492 6.875 11.7521V3.24789C6.875 2.25076 6.875 1.75219 6.58206 1.47489C6.53125 1.4268 6.47525 1.38454 6.415 1.34892C6.06785 1.14347 5.58838 1.28044 4.62944 1.55437C3.67291 1.82761 3.19465 1.96424 2.89236 2.30578C2.83837 2.36677 2.78924 2.43189 2.74542 2.50054Z" stroke="#137EEF" stroke-width="1.5" stroke-linecap="round" stroke-linejoin="round"/>
<path d="M6.875 2.5H8.13569C9.32425 2.5 9.9185 2.5 10.2877 2.86612C10.4936 3.07024 10.5847 3.34371 10.625 3.75M6.875 12.5H8.13569C9.32425 12.5 9.9185 12.5 10.2877 12.1339C10.4936 11.9297 10.5847 11.6563 10.625 11.25" stroke="#137EEF" stroke-width="1.5" stroke-linecap="round" stroke-linejoin="round"/>
<path d="M13.125 7.50004H8.75M12.1875 5.9375C12.1875 5.9375 13.75 7.08829 13.75 7.50004C13.75 7.91179 12.1875 9.06247 12.1875 9.06247" stroke="#137EEF" stroke-width="1.5" stroke-linecap="round" stroke-linejoin="round"/>
</svg>
