<svg width="20" height="20" viewBox="0 0 20 20" fill="none" xmlns="http://www.w3.org/2000/svg">
<path d="M3.75 8.55442V5H16.25V8.55442C16.25 11.2001 16.25 12.5229 15.4364 13.3448C14.6228 14.1667 13.3133 14.1667 10.6944 14.1667H9.30558C6.68664 14.1667 5.37718 14.1667 4.56359 13.3448C3.75 12.5229 3.75 11.2001 3.75 8.55442Z" stroke="#137EEF" stroke-width="1.5" stroke-linecap="round" stroke-linejoin="round"/>
<path d="M3.75 5.00008L4.35096 3.71803C4.81704 2.72373 5.05008 2.22658 5.52243 1.94666C5.99479 1.66675 6.6007 1.66675 7.8125 1.66675H12.1875C13.3993 1.66675 14.0052 1.66675 14.4776 1.94666C14.9499 2.22658 15.183 2.72373 15.649 3.71803L16.25 5.00008" stroke="#137EEF" stroke-width="1.5" stroke-linecap="round"/>
<path d="M8.75 7.5H11.25" stroke="#137EEF" stroke-width="1.5" stroke-linecap="round"/>
<path d="M9.99996 16.25V18.3333M9.99996 16.25H5.83329M9.99996 16.25H14.1666M5.83329 16.25H3.74996C2.59937 16.25 1.66663 17.1827 1.66663 18.3333M5.83329 16.25V18.3333M14.1666 16.25H16.25C17.4005 16.25 18.3333 17.1827 18.3333 18.3333M14.1666 16.25V18.3333" stroke="#137EEF" stroke-width="1.5" stroke-linecap="round" stroke-linejoin="round"/>
</svg>
