<svg width="20" height="20" viewBox="0 0 20 20" fill="none" xmlns="http://www.w3.org/2000/svg">
<path d="M3.33325 15.5382V6.71196C3.33325 4.33362 3.33325 3.14446 4.06549 2.40561C4.79772 1.66675 5.97623 1.66675 8.33325 1.66675H11.6666C14.0236 1.66675 15.2021 1.66675 15.9343 2.40561C16.6666 3.14446 16.6666 4.33362 16.6666 6.71196V15.5382C16.6666 16.798 16.6666 17.4278 16.2816 17.6757C15.6525 18.081 14.68 17.2312 14.1908 16.9228C13.7867 16.6679 13.5847 16.5405 13.3603 16.5332C13.118 16.5252 12.9123 16.6474 12.4757 16.9228L10.8833 17.9271C10.4537 18.1979 10.2389 18.3334 9.99992 18.3334C9.76092 18.3334 9.54617 18.1979 9.11658 17.9271L7.52419 16.9228C7.12004 16.6679 6.91797 16.5405 6.69369 16.5332C6.45135 16.5252 6.24569 16.6474 5.80898 16.9228C5.31988 17.2312 4.34731 18.081 3.71821 17.6757C3.33325 17.4278 3.33325 16.798 3.33325 15.5382Z" stroke="#137EEF" stroke-width="1.5" stroke-linecap="round" stroke-linejoin="round"/>
<path d="M13.3334 5H6.66675" stroke="#137EEF" stroke-width="1.5" stroke-linecap="round" stroke-linejoin="round"/>
<path d="M8.33341 8.33325H6.66675" stroke="#137EEF" stroke-width="1.5" stroke-linecap="round" stroke-linejoin="round"/>
<path d="M12.0833 8.22917C11.3929 8.22917 10.8333 8.71883 10.8333 9.32292C10.8333 9.927 11.3929 10.4167 12.0833 10.4167C12.7736 10.4167 13.3333 10.9063 13.3333 11.5104C13.3333 12.1145 12.7736 12.6042 12.0833 12.6042M12.0833 8.22917C12.6275 8.22917 13.0905 8.5335 13.2621 8.95833M12.0833 8.22917V7.5M12.0833 12.6042C11.539 12.6042 11.076 12.2998 10.9044 11.875M12.0833 12.6042V13.3333" stroke="#137EEF" stroke-width="1.5" stroke-linecap="round"/>
</svg>
