<svg width="20" height="20" viewBox="0 0 20 20" fill="none" xmlns="http://www.w3.org/2000/svg">
<path d="M2.08337 9.99992C2.08337 6.26797 2.08337 4.40199 3.24274 3.24262C4.40212 2.08325 6.26809 2.08325 10 2.08325C13.732 2.08325 15.598 2.08325 16.7574 3.24262C17.9167 4.40199 17.9167 6.26797 17.9167 9.99992C17.9167 13.7318 17.9167 15.5978 16.7574 16.7573C15.598 17.9166 13.732 17.9166 10 17.9166C6.26809 17.9166 4.40212 17.9166 3.24274 16.7573C2.08337 15.5978 2.08337 13.7318 2.08337 9.99992Z" stroke="#137EEF" stroke-width="1.5" stroke-linejoin="round"/>
<path d="M7.08337 8.33325C6.39302 8.33325 5.83337 7.77361 5.83337 7.08325C5.83337 6.39289 6.39302 5.83325 7.08337 5.83325C7.77373 5.83325 8.33337 6.39289 8.33337 7.08325C8.33337 7.77361 7.77373 8.33325 7.08337 8.33325Z" stroke="#137EEF" stroke-width="1.5"/>
<path d="M12.9166 14.1667C13.607 14.1667 14.1666 13.6071 14.1666 12.9167C14.1666 12.2264 13.607 11.6667 12.9166 11.6667C12.2263 11.6667 11.6666 12.2264 11.6666 12.9167C11.6666 13.6071 12.2263 14.1667 12.9166 14.1667Z" stroke="#137EEF" stroke-width="1.5"/>
<path d="M8.33337 7.08325H14.1667" stroke="#137EEF" stroke-width="1.5" stroke-linecap="round"/>
<path d="M11.6667 12.9167H5.83337" stroke="#137EEF" stroke-width="1.5" stroke-linecap="round"/>
</svg>
