<svg width="20" height="20" viewBox="0 0 20 20" fill="none" xmlns="http://www.w3.org/2000/svg">
<path d="M3.81621 7.17257L1.66663 7.04522C3.20746 3.08748 7.63133 0.833288 11.9445 1.95406C16.5384 3.14776 19.267 7.71802 18.0391 12.162C17.0235 15.8377 13.6194 18.2757 9.87321 18.3334" stroke="#137EEF" stroke-width="1.5" stroke-linecap="round" stroke-linejoin="round"/>
<path d="M9.99996 18.3334C5.41663 18.3334 1.66663 14.1667 1.66663 9.16675" stroke="#137EEF" stroke-width="1.5" stroke-linecap="round" stroke-linejoin="round" stroke-dasharray="0.5 3"/>
<path d="M11.3366 8.10139C11.0437 7.79381 10.3255 7.07105 9.19104 7.58418C8.05658 8.0973 7.87637 9.74825 9.59238 9.92367C10.368 10.0029 10.8737 9.83167 11.3366 10.3161C11.7996 10.8005 11.8856 12.1478 10.7021 12.5108C9.51854 12.8738 8.75171 12.2743 8.54546 12.0867M9.92321 6.68286V7.34205M9.92321 12.6225V13.3495" stroke="#137EEF" stroke-width="1.5" stroke-linecap="round" stroke-linejoin="round"/>
</svg>
